<mxfile host="Electron" agent="Mozilla/5.0 (Windows NT 10.0; Win64; x64) AppleWebKit/537.36 (KHTML, like Gecko) draw.io/27.0.5 Chrome/134.0.6998.205 Electron/35.3.0 Safari/537.36" version="27.0.5">
  <diagram name="Seite-1" id="0snoWt4GrMVO1PJhk5Sl">
    <mxGraphModel dx="1213" dy="1997" grid="1" gridSize="10" guides="1" tooltips="1" connect="1" arrows="1" fold="1" page="1" pageScale="1" pageWidth="827" pageHeight="1169" math="0" shadow="0">
      <root>
        <mxCell id="0" />
        <mxCell id="1" parent="0" />
        <mxCell id="_JHPowpZo0vX_lbSRo0Q-43" value="SqlServerUnitOfWork" style="rounded=0;whiteSpace=wrap;html=1;fillColor=#d5e8d4;strokeColor=#82b366;fontStyle=1;align=left;verticalAlign=top;fontSize=16;" vertex="1" parent="1">
          <mxGeometry x="140" y="150" width="780" height="470" as="geometry" />
        </mxCell>
        <mxCell id="_JHPowpZo0vX_lbSRo0Q-32" value="" style="rounded=0;whiteSpace=wrap;html=1;fillColor=#e1d5e7;strokeColor=#9673a6;" vertex="1" parent="1">
          <mxGeometry x="150" y="190" width="760" height="420" as="geometry" />
        </mxCell>
        <mxCell id="_JHPowpZo0vX_lbSRo0Q-33" value="" style="rounded=0;whiteSpace=wrap;html=1;fillColor=#f8cecc;strokeColor=#b85450;" vertex="1" parent="1">
          <mxGeometry x="160" y="510" width="730" height="70" as="geometry" />
        </mxCell>
        <mxCell id="_JHPowpZo0vX_lbSRo0Q-1" value="DbContext" style="shape=cylinder3;whiteSpace=wrap;html=1;boundedLbl=1;backgroundOutline=1;size=15;" vertex="1" parent="1">
          <mxGeometry x="400" y="90" width="90" height="80" as="geometry" />
        </mxCell>
        <mxCell id="_JHPowpZo0vX_lbSRo0Q-2" value="Is database&amp;nbsp;&lt;div&gt;existing?&lt;/div&gt;" style="rhombus;whiteSpace=wrap;html=1;" vertex="1" parent="1">
          <mxGeometry x="377" y="200" width="134" height="80" as="geometry" />
        </mxCell>
        <mxCell id="_JHPowpZo0vX_lbSRo0Q-3" value="Create database" style="rounded=0;whiteSpace=wrap;html=1;" vertex="1" parent="1">
          <mxGeometry x="170" y="220" width="120" height="40" as="geometry" />
        </mxCell>
        <mxCell id="_JHPowpZo0vX_lbSRo0Q-4" value="" style="endArrow=classic;html=1;rounded=0;exitX=0;exitY=0.5;exitDx=0;exitDy=0;entryX=1;entryY=0.5;entryDx=0;entryDy=0;" edge="1" parent="1" source="_JHPowpZo0vX_lbSRo0Q-2" target="_JHPowpZo0vX_lbSRo0Q-3">
          <mxGeometry width="50" height="50" relative="1" as="geometry">
            <mxPoint x="390" y="450" as="sourcePoint" />
            <mxPoint x="440" y="400" as="targetPoint" />
          </mxGeometry>
        </mxCell>
        <mxCell id="_JHPowpZo0vX_lbSRo0Q-5" value="Create tables for entities" style="rounded=0;whiteSpace=wrap;html=1;" vertex="1" parent="1">
          <mxGeometry x="170" y="320" width="120" height="40" as="geometry" />
        </mxCell>
        <mxCell id="_JHPowpZo0vX_lbSRo0Q-6" value="" style="endArrow=classic;html=1;rounded=0;exitX=0.5;exitY=1;exitDx=0;exitDy=0;entryX=0.5;entryY=0;entryDx=0;entryDy=0;" edge="1" parent="1" source="_JHPowpZo0vX_lbSRo0Q-3" target="_JHPowpZo0vX_lbSRo0Q-5">
          <mxGeometry width="50" height="50" relative="1" as="geometry">
            <mxPoint x="390" y="450" as="sourcePoint" />
            <mxPoint x="230" y="290" as="targetPoint" />
          </mxGeometry>
        </mxCell>
        <mxCell id="_JHPowpZo0vX_lbSRo0Q-9" value="No" style="text;html=1;align=center;verticalAlign=middle;whiteSpace=wrap;rounded=0;" vertex="1" parent="1">
          <mxGeometry x="294" y="210" width="60" height="30" as="geometry" />
        </mxCell>
        <mxCell id="_JHPowpZo0vX_lbSRo0Q-11" value="Migrations&lt;div&gt;pending?&lt;/div&gt;" style="rhombus;whiteSpace=wrap;html=1;" vertex="1" parent="1">
          <mxGeometry x="590" y="200" width="134" height="80" as="geometry" />
        </mxCell>
        <mxCell id="_JHPowpZo0vX_lbSRo0Q-12" value="" style="endArrow=classic;html=1;rounded=0;exitX=1;exitY=0.5;exitDx=0;exitDy=0;" edge="1" parent="1" source="_JHPowpZo0vX_lbSRo0Q-2" target="_JHPowpZo0vX_lbSRo0Q-11">
          <mxGeometry width="50" height="50" relative="1" as="geometry">
            <mxPoint x="390" y="450" as="sourcePoint" />
            <mxPoint x="440" y="400" as="targetPoint" />
          </mxGeometry>
        </mxCell>
        <mxCell id="_JHPowpZo0vX_lbSRo0Q-13" value="Yes" style="text;html=1;align=center;verticalAlign=middle;whiteSpace=wrap;rounded=0;" vertex="1" parent="1">
          <mxGeometry x="510" y="210" width="60" height="30" as="geometry" />
        </mxCell>
        <mxCell id="_JHPowpZo0vX_lbSRo0Q-14" value="App start" style="rounded=0;whiteSpace=wrap;html=1;" vertex="1" parent="1">
          <mxGeometry x="597" y="640" width="123" height="50" as="geometry" />
        </mxCell>
        <mxCell id="_JHPowpZo0vX_lbSRo0Q-15" value="Backup database" style="rounded=0;whiteSpace=wrap;html=1;" vertex="1" parent="1">
          <mxGeometry x="597" y="320" width="120" height="40" as="geometry" />
        </mxCell>
        <mxCell id="_JHPowpZo0vX_lbSRo0Q-16" value="Run migrations" style="rounded=0;whiteSpace=wrap;html=1;" vertex="1" parent="1">
          <mxGeometry x="597" y="420" width="120" height="40" as="geometry" />
        </mxCell>
        <mxCell id="_JHPowpZo0vX_lbSRo0Q-17" value="" style="endArrow=classic;html=1;rounded=0;exitX=0.5;exitY=1;exitDx=0;exitDy=0;entryX=0.5;entryY=0;entryDx=0;entryDy=0;" edge="1" parent="1" source="_JHPowpZo0vX_lbSRo0Q-11" target="_JHPowpZo0vX_lbSRo0Q-15">
          <mxGeometry width="50" height="50" relative="1" as="geometry">
            <mxPoint x="390" y="450" as="sourcePoint" />
            <mxPoint x="440" y="400" as="targetPoint" />
          </mxGeometry>
        </mxCell>
        <mxCell id="_JHPowpZo0vX_lbSRo0Q-18" value="" style="endArrow=classic;html=1;rounded=0;entryX=0.5;entryY=0;entryDx=0;entryDy=0;exitX=0.5;exitY=1;exitDx=0;exitDy=0;" edge="1" parent="1" source="_JHPowpZo0vX_lbSRo0Q-15" target="_JHPowpZo0vX_lbSRo0Q-16">
          <mxGeometry width="50" height="50" relative="1" as="geometry">
            <mxPoint x="390" y="450" as="sourcePoint" />
            <mxPoint x="440" y="400" as="targetPoint" />
          </mxGeometry>
        </mxCell>
        <mxCell id="_JHPowpZo0vX_lbSRo0Q-19" value="Convert POCOs" style="rounded=0;whiteSpace=wrap;html=1;" vertex="1" parent="1">
          <mxGeometry x="597" y="520" width="120" height="40" as="geometry" />
        </mxCell>
        <mxCell id="_JHPowpZo0vX_lbSRo0Q-20" value="Yes" style="text;html=1;align=center;verticalAlign=middle;whiteSpace=wrap;rounded=0;" vertex="1" parent="1">
          <mxGeometry x="597" y="280" width="60" height="30" as="geometry" />
        </mxCell>
        <mxCell id="_JHPowpZo0vX_lbSRo0Q-21" value="Seed POCOs" style="rounded=0;whiteSpace=wrap;html=1;" vertex="1" parent="1">
          <mxGeometry x="170" y="520" width="120" height="40" as="geometry" />
        </mxCell>
        <mxCell id="_JHPowpZo0vX_lbSRo0Q-22" value="" style="endArrow=classic;html=1;rounded=0;exitX=0.5;exitY=1;exitDx=0;exitDy=0;entryX=0.5;entryY=0;entryDx=0;entryDy=0;" edge="1" parent="1" source="_JHPowpZo0vX_lbSRo0Q-16" target="_JHPowpZo0vX_lbSRo0Q-19">
          <mxGeometry width="50" height="50" relative="1" as="geometry">
            <mxPoint x="390" y="450" as="sourcePoint" />
            <mxPoint x="440" y="400" as="targetPoint" />
          </mxGeometry>
        </mxCell>
        <mxCell id="_JHPowpZo0vX_lbSRo0Q-23" value="" style="endArrow=classic;html=1;rounded=0;exitX=0.5;exitY=1;exitDx=0;exitDy=0;entryX=0.5;entryY=0;entryDx=0;entryDy=0;" edge="1" parent="1" source="_JHPowpZo0vX_lbSRo0Q-19">
          <mxGeometry width="50" height="50" relative="1" as="geometry">
            <mxPoint x="657" y="500" as="sourcePoint" />
            <mxPoint x="655.5" y="640" as="targetPoint" />
          </mxGeometry>
        </mxCell>
        <mxCell id="_JHPowpZo0vX_lbSRo0Q-24" value="" style="endArrow=classic;html=1;rounded=0;entryX=0.5;entryY=0;entryDx=0;entryDy=0;" edge="1" parent="1" source="_JHPowpZo0vX_lbSRo0Q-21">
          <mxGeometry width="50" height="50" relative="1" as="geometry">
            <mxPoint x="230" y="510" as="sourcePoint" />
            <mxPoint x="655.5" y="640" as="targetPoint" />
            <Array as="points">
              <mxPoint x="230" y="600" />
              <mxPoint x="656" y="600" />
            </Array>
          </mxGeometry>
        </mxCell>
        <mxCell id="_JHPowpZo0vX_lbSRo0Q-25" value="" style="endArrow=classic;html=1;rounded=0;exitX=0.5;exitY=1;exitDx=0;exitDy=0;entryX=0.5;entryY=0;entryDx=0;entryDy=0;" edge="1" parent="1" source="_JHPowpZo0vX_lbSRo0Q-5" target="_JHPowpZo0vX_lbSRo0Q-21">
          <mxGeometry width="50" height="50" relative="1" as="geometry">
            <mxPoint x="390" y="450" as="sourcePoint" />
            <mxPoint x="440" y="400" as="targetPoint" />
          </mxGeometry>
        </mxCell>
        <mxCell id="_JHPowpZo0vX_lbSRo0Q-26" value="Check POCOs" style="rounded=0;whiteSpace=wrap;html=1;" vertex="1" parent="1">
          <mxGeometry x="760" y="520" width="120" height="40" as="geometry" />
        </mxCell>
        <mxCell id="_JHPowpZo0vX_lbSRo0Q-27" value="" style="endArrow=classic;html=1;rounded=0;exitX=1;exitY=0.5;exitDx=0;exitDy=0;entryX=0.5;entryY=0;entryDx=0;entryDy=0;" edge="1" parent="1" source="_JHPowpZo0vX_lbSRo0Q-11" target="_JHPowpZo0vX_lbSRo0Q-26">
          <mxGeometry width="50" height="50" relative="1" as="geometry">
            <mxPoint x="390" y="450" as="sourcePoint" />
            <mxPoint x="440" y="400" as="targetPoint" />
            <Array as="points">
              <mxPoint x="820" y="240" />
            </Array>
          </mxGeometry>
        </mxCell>
        <mxCell id="_JHPowpZo0vX_lbSRo0Q-28" value="No" style="text;html=1;align=center;verticalAlign=middle;whiteSpace=wrap;rounded=0;" vertex="1" parent="1">
          <mxGeometry x="730" y="210" width="60" height="30" as="geometry" />
        </mxCell>
        <mxCell id="_JHPowpZo0vX_lbSRo0Q-29" value="" style="endArrow=classic;html=1;rounded=0;entryX=0.5;entryY=0;entryDx=0;entryDy=0;" edge="1" parent="1">
          <mxGeometry width="50" height="50" relative="1" as="geometry">
            <mxPoint x="820" y="560" as="sourcePoint" />
            <mxPoint x="655.5" y="640" as="targetPoint" />
            <Array as="points">
              <mxPoint x="820" y="600" />
              <mxPoint x="656" y="600" />
            </Array>
          </mxGeometry>
        </mxCell>
        <mxCell id="_JHPowpZo0vX_lbSRo0Q-31" value="" style="endArrow=classic;html=1;rounded=0;exitX=0.5;exitY=1;exitDx=0;exitDy=0;exitPerimeter=0;entryX=0.5;entryY=0;entryDx=0;entryDy=0;" edge="1" parent="1" source="_JHPowpZo0vX_lbSRo0Q-1" target="_JHPowpZo0vX_lbSRo0Q-2">
          <mxGeometry width="50" height="50" relative="1" as="geometry">
            <mxPoint x="390" y="450" as="sourcePoint" />
            <mxPoint x="440" y="400" as="targetPoint" />
          </mxGeometry>
        </mxCell>
        <mxCell id="_JHPowpZo0vX_lbSRo0Q-34" value="ModelDataConverterHandler and IDataConverter" style="text;html=1;align=center;verticalAlign=middle;whiteSpace=wrap;rounded=0;fontStyle=1;fontSize=16;" vertex="1" parent="1">
          <mxGeometry x="410" y="530" width="60" height="30" as="geometry" />
        </mxCell>
        <mxCell id="_JHPowpZo0vX_lbSRo0Q-42" value="IMigrationController / MigrationController" style="text;html=1;align=center;verticalAlign=middle;whiteSpace=wrap;rounded=0;fontSize=16;fontStyle=1" vertex="1" parent="1">
          <mxGeometry x="355" y="370" width="180" height="30" as="geometry" />
        </mxCell>
        <mxCell id="_JHPowpZo0vX_lbSRo0Q-45" value="IDbContextFactory" style="rounded=0;whiteSpace=wrap;html=1;fontStyle=1;fontSize=14;" vertex="1" parent="1">
          <mxGeometry x="350" y="-10" width="190" height="60" as="geometry" />
        </mxCell>
        <mxCell id="_JHPowpZo0vX_lbSRo0Q-46" value="" style="endArrow=classic;html=1;rounded=0;entryX=0.5;entryY=0;entryDx=0;entryDy=0;entryPerimeter=0;exitX=0.5;exitY=1;exitDx=0;exitDy=0;" edge="1" parent="1" source="_JHPowpZo0vX_lbSRo0Q-45" target="_JHPowpZo0vX_lbSRo0Q-1">
          <mxGeometry width="50" height="50" relative="1" as="geometry">
            <mxPoint x="390" y="90" as="sourcePoint" />
            <mxPoint x="440" y="40" as="targetPoint" />
          </mxGeometry>
        </mxCell>
        <mxCell id="_JHPowpZo0vX_lbSRo0Q-47" value="creates" style="text;html=1;align=center;verticalAlign=middle;whiteSpace=wrap;rounded=0;" vertex="1" parent="1">
          <mxGeometry x="370" y="60" width="60" height="30" as="geometry" />
        </mxCell>
      </root>
    </mxGraphModel>
  </diagram>
</mxfile>
